<mxfile host="app.diagrams.net" modified="2024-04-12T16:01:12.760Z" agent="Mozilla/5.0 (Windows NT 10.0; Win64; x64) AppleWebKit/537.36 (KHTML, like Gecko) Chrome/123.0.0.0 Safari/537.36 Edg/123.0.0.0" etag="brl8YvLnz15RMcz3_9Up" version="24.2.3" type="device">
  <diagram name="Pagina-1" id="IbT7eBAlwoWLDqquoVLd">
    <mxGraphModel dx="952" dy="623" grid="1" gridSize="10" guides="1" tooltips="1" connect="1" arrows="1" fold="1" page="1" pageScale="1" pageWidth="827" pageHeight="1169" math="0" shadow="0">
      <root>
        <mxCell id="0" />
        <mxCell id="1" parent="0" />
        <mxCell id="JeFptT6Igk8AU_w3-442-5" style="edgeStyle=orthogonalEdgeStyle;rounded=0;orthogonalLoop=1;jettySize=auto;html=1;endArrow=doubleBlock;endFill=1;" edge="1" parent="1" source="JeFptT6Igk8AU_w3-442-1" target="JeFptT6Igk8AU_w3-442-3">
          <mxGeometry relative="1" as="geometry" />
        </mxCell>
        <mxCell id="JeFptT6Igk8AU_w3-442-35" style="edgeStyle=orthogonalEdgeStyle;rounded=0;orthogonalLoop=1;jettySize=auto;html=1;entryX=0;entryY=0.5;entryDx=0;entryDy=0;" edge="1" parent="1" source="JeFptT6Igk8AU_w3-442-1" target="JeFptT6Igk8AU_w3-442-25">
          <mxGeometry relative="1" as="geometry" />
        </mxCell>
        <mxCell id="JeFptT6Igk8AU_w3-442-36" style="edgeStyle=orthogonalEdgeStyle;rounded=0;orthogonalLoop=1;jettySize=auto;html=1;entryX=0;entryY=0.5;entryDx=0;entryDy=0;" edge="1" parent="1" source="JeFptT6Igk8AU_w3-442-1" target="JeFptT6Igk8AU_w3-442-7">
          <mxGeometry relative="1" as="geometry" />
        </mxCell>
        <mxCell id="JeFptT6Igk8AU_w3-442-37" style="edgeStyle=orthogonalEdgeStyle;rounded=0;orthogonalLoop=1;jettySize=auto;html=1;entryX=0;entryY=0.5;entryDx=0;entryDy=0;" edge="1" parent="1" source="JeFptT6Igk8AU_w3-442-1" target="JeFptT6Igk8AU_w3-442-9">
          <mxGeometry relative="1" as="geometry" />
        </mxCell>
        <mxCell id="JeFptT6Igk8AU_w3-442-1" value="Squadra" style="rounded=0;whiteSpace=wrap;html=1;" vertex="1" parent="1">
          <mxGeometry x="130" y="160" width="120" height="60" as="geometry" />
        </mxCell>
        <mxCell id="JeFptT6Igk8AU_w3-442-4" value="" style="edgeStyle=orthogonalEdgeStyle;rounded=0;orthogonalLoop=1;jettySize=auto;html=1;" edge="1" parent="1" source="JeFptT6Igk8AU_w3-442-2" target="JeFptT6Igk8AU_w3-442-3">
          <mxGeometry relative="1" as="geometry" />
        </mxCell>
        <mxCell id="JeFptT6Igk8AU_w3-442-29" style="edgeStyle=orthogonalEdgeStyle;rounded=0;orthogonalLoop=1;jettySize=auto;html=1;entryX=0;entryY=0.5;entryDx=0;entryDy=0;" edge="1" parent="1" source="JeFptT6Igk8AU_w3-442-2" target="JeFptT6Igk8AU_w3-442-27">
          <mxGeometry relative="1" as="geometry" />
        </mxCell>
        <mxCell id="JeFptT6Igk8AU_w3-442-30" style="edgeStyle=orthogonalEdgeStyle;rounded=0;orthogonalLoop=1;jettySize=auto;html=1;entryX=0;entryY=0.5;entryDx=0;entryDy=0;" edge="1" parent="1" source="JeFptT6Igk8AU_w3-442-2" target="JeFptT6Igk8AU_w3-442-13">
          <mxGeometry relative="1" as="geometry" />
        </mxCell>
        <mxCell id="JeFptT6Igk8AU_w3-442-31" style="edgeStyle=orthogonalEdgeStyle;rounded=0;orthogonalLoop=1;jettySize=auto;html=1;entryX=0;entryY=0.5;entryDx=0;entryDy=0;" edge="1" parent="1" source="JeFptT6Igk8AU_w3-442-2" target="JeFptT6Igk8AU_w3-442-15">
          <mxGeometry relative="1" as="geometry" />
        </mxCell>
        <mxCell id="JeFptT6Igk8AU_w3-442-32" style="edgeStyle=orthogonalEdgeStyle;rounded=0;orthogonalLoop=1;jettySize=auto;html=1;entryX=0;entryY=0.5;entryDx=0;entryDy=0;" edge="1" parent="1" source="JeFptT6Igk8AU_w3-442-2" target="JeFptT6Igk8AU_w3-442-17">
          <mxGeometry relative="1" as="geometry" />
        </mxCell>
        <mxCell id="JeFptT6Igk8AU_w3-442-2" value="Personaggio" style="rounded=0;whiteSpace=wrap;html=1;" vertex="1" parent="1">
          <mxGeometry x="590" y="160" width="120" height="60" as="geometry" />
        </mxCell>
        <mxCell id="JeFptT6Igk8AU_w3-442-3" value="Scegliere" style="rhombus;whiteSpace=wrap;html=1;rounded=0;" vertex="1" parent="1">
          <mxGeometry x="380" y="150" width="80" height="80" as="geometry" />
        </mxCell>
        <mxCell id="JeFptT6Igk8AU_w3-442-6" value="" style="endArrow=none;html=1;rounded=0;" edge="1" parent="1">
          <mxGeometry width="50" height="50" relative="1" as="geometry">
            <mxPoint x="280" y="215" as="sourcePoint" />
            <mxPoint x="280" y="165" as="targetPoint" />
          </mxGeometry>
        </mxCell>
        <mxCell id="JeFptT6Igk8AU_w3-442-7" value="" style="ellipse;whiteSpace=wrap;html=1;aspect=fixed;fillColor=#000000;" vertex="1" parent="1">
          <mxGeometry x="220" y="277.5" width="20" height="20" as="geometry" />
        </mxCell>
        <mxCell id="JeFptT6Igk8AU_w3-442-8" value="Nome" style="text;html=1;align=center;verticalAlign=middle;whiteSpace=wrap;rounded=0;" vertex="1" parent="1">
          <mxGeometry x="230" y="272.5" width="60" height="30" as="geometry" />
        </mxCell>
        <mxCell id="JeFptT6Igk8AU_w3-442-9" value="" style="ellipse;whiteSpace=wrap;html=1;aspect=fixed;" vertex="1" parent="1">
          <mxGeometry x="220" y="302.5" width="20" height="20" as="geometry" />
        </mxCell>
        <mxCell id="JeFptT6Igk8AU_w3-442-10" value="Bu&lt;span style=&quot;background-color: initial;&quot;&gt;dget&lt;/span&gt;" style="text;html=1;align=center;verticalAlign=middle;whiteSpace=wrap;rounded=0;" vertex="1" parent="1">
          <mxGeometry x="232" y="297.5" width="60" height="30" as="geometry" />
        </mxCell>
        <mxCell id="JeFptT6Igk8AU_w3-442-13" value="" style="ellipse;whiteSpace=wrap;html=1;aspect=fixed;fillColor=#000000;" vertex="1" parent="1">
          <mxGeometry x="670" y="265" width="20" height="20" as="geometry" />
        </mxCell>
        <mxCell id="JeFptT6Igk8AU_w3-442-14" value="Nome" style="text;html=1;align=center;verticalAlign=middle;whiteSpace=wrap;rounded=0;" vertex="1" parent="1">
          <mxGeometry x="680" y="260" width="60" height="30" as="geometry" />
        </mxCell>
        <mxCell id="JeFptT6Igk8AU_w3-442-15" value="" style="ellipse;whiteSpace=wrap;html=1;aspect=fixed;" vertex="1" parent="1">
          <mxGeometry x="670" y="290" width="20" height="20" as="geometry" />
        </mxCell>
        <mxCell id="JeFptT6Igk8AU_w3-442-16" value="Categoria" style="text;html=1;align=center;verticalAlign=middle;whiteSpace=wrap;rounded=0;" vertex="1" parent="1">
          <mxGeometry x="690" y="285" width="60" height="30" as="geometry" />
        </mxCell>
        <mxCell id="JeFptT6Igk8AU_w3-442-17" value="" style="ellipse;whiteSpace=wrap;html=1;aspect=fixed;" vertex="1" parent="1">
          <mxGeometry x="670" y="315" width="20" height="20" as="geometry" />
        </mxCell>
        <mxCell id="JeFptT6Igk8AU_w3-442-18" value="Costo" style="text;html=1;align=center;verticalAlign=middle;whiteSpace=wrap;rounded=0;" vertex="1" parent="1">
          <mxGeometry x="680" y="310" width="60" height="30" as="geometry" />
        </mxCell>
        <mxCell id="JeFptT6Igk8AU_w3-442-25" value="" style="ellipse;whiteSpace=wrap;html=1;aspect=fixed;fillColor=#000000;" vertex="1" parent="1">
          <mxGeometry x="220" y="252.5" width="20" height="20" as="geometry" />
        </mxCell>
        <mxCell id="JeFptT6Igk8AU_w3-442-26" value="Codice" style="text;html=1;align=center;verticalAlign=middle;whiteSpace=wrap;rounded=0;" vertex="1" parent="1">
          <mxGeometry x="232" y="247.5" width="60" height="30" as="geometry" />
        </mxCell>
        <mxCell id="JeFptT6Igk8AU_w3-442-27" value="" style="ellipse;whiteSpace=wrap;html=1;aspect=fixed;fillColor=#000000;" vertex="1" parent="1">
          <mxGeometry x="670" y="240" width="20" height="20" as="geometry" />
        </mxCell>
        <mxCell id="JeFptT6Igk8AU_w3-442-28" value="Codice" style="text;html=1;align=center;verticalAlign=middle;whiteSpace=wrap;rounded=0;" vertex="1" parent="1">
          <mxGeometry x="682" y="235" width="60" height="30" as="geometry" />
        </mxCell>
      </root>
    </mxGraphModel>
  </diagram>
</mxfile>
